<svg width="443" height="559" viewBox="0 0 443 559" fill="none" xmlns="http://www.w3.org/2000/svg">
<path d="M230.665 4.00317C172.243 19.5863 132.127 64.3879 114.211 133.733C102.137 180.093 97.074 266.579 102.527 321.899C105.253 344.495 105.643 345.664 115.769 345.664C121.611 345.664 131.738 344.495 137.969 343.326L149.653 340.989V272.423C150.432 112.696 184.706 49.5839 271.17 49.5839C334.655 49.5839 369.708 84.2564 369.319 146.979C369.319 164.12 366.203 181.651 361.14 196.065C356.466 208.922 351.792 221.778 351.013 224.894C349.845 228.79 355.687 234.244 368.54 241.646L388.014 252.554L393.856 243.594C418.393 205.415 425.014 130.227 407.877 86.5938C395.803 55.8171 368.15 26.5987 337.771 12.9635C309.729 0.107364 261.044 -3.7884 230.665 4.00317Z" fill="#00423C"/>
<path d="M197.56 231.518C169.517 235.803 170.296 235.024 170.296 259.957C170.296 272.813 171.465 283.331 173.412 283.331C174.97 283.331 191.328 281.384 210.412 279.046C294.539 268.917 351.403 295.798 383.34 360.858C392.298 378.389 394.246 387.739 394.246 409.945C393.856 441.89 385.288 462.148 362.698 482.017C338.161 503.443 316.74 510.845 281.297 510.845C227.939 510.456 196.391 490.587 175.359 444.227C169.907 432.93 165.622 423.58 165.233 423.58C164.843 423.969 154.717 426.307 143.033 429.034C118.496 434.878 118.106 436.046 133.685 469.16C156.664 517.468 200.286 549.024 255.981 556.816C373.603 573.957 466.688 476.173 437.088 366.701C420.341 304.369 362.308 249.438 298.824 235.024C274.287 229.18 222.097 227.622 197.56 231.518Z" fill="#00423C"/>
<path d="M50.3375 283.331C-4.96824 318.783 -16.2631 368.649 24.2426 397.088C68.2535 428.254 158.612 417.736 254.034 370.597C289.866 353.066 326.087 328.912 326.087 322.678C326.087 320.73 316.74 314.497 305.445 308.264L284.413 297.356L272.34 306.316C251.697 321.12 189.381 348.78 156.665 357.74C105.643 371.765 49.5586 368.649 49.5586 351.507C49.5586 348.78 57.3481 339.43 66.6956 331.249L84.2221 316.445L81.8852 291.902C80.7168 278.656 78.3799 267.748 76.822 267.748C75.2641 267.748 63.5798 274.76 50.3375 283.331Z" fill="#00423C"/>
</svg>
